<svg viewBox="0 0 16 16" fill="#544a7f" xmlns="http://www.w3.org/2000/svg" id="Contacts-Line--Streamline-Remix" height="16" width="16">
  <desc>
    Contacts Line Streamline Icon: https://streamlinehq.com
  </desc>
  <path d="M12.666666666666666 4.666666666666666h3.333333333333333v1.3333333333333333h-3.333333333333333V4.666666666666666Zm-1.3333333333333333 3.333333333333333h4.666666666666666v1.3333333333333333h-4.666666666666666v-1.3333333333333333Zm2 3.333333333333333h2.6666666666666665v1.3333333333333333h-2.6666666666666665v-1.3333333333333333ZM1.3333333333333333 14.666666666666666c0 -2.9455333333333336 2.387813333333333 -5.333333333333333 5.333333333333333 -5.333333333333333 2.9455333333333336 0 5.333333333333333 2.3878 5.333333333333333 5.333333333333333h-1.3333333333333333c0 -2.209133333333333 -1.7908666666666666 -4 -4 -4 -2.2091399999999997 0 -4 1.7908666666666666 -4 4H1.3333333333333333Zm5.333333333333333 -6c-2.21 0 -4 -1.79 -4 -4s1.79 -4 4 -4 4 1.79 4 4 -1.79 4 -4 4Zm0 -1.3333333333333333c1.4733333333333332 0 2.6666666666666665 -1.1933333333333334 2.6666666666666665 -2.6666666666666665s-1.1933333333333334 -2.6666666666666665 -2.6666666666666665 -2.6666666666666665 -2.6666666666666665 1.1933333333333334 -2.6666666666666665 2.6666666666666665 1.1933333333333334 2.6666666666666665 2.6666666666666665 2.6666666666666665Z" stroke-width="0.6667"></path>
</svg>