<svg viewBox="0 0 16 16" fill="#635199" xmlns="http://www.w3.org/2000/svg" id="Information-2-Line--Streamline-Remix" height="16" width="16">
  <desc>
    Information 2 Line Streamline Icon: https://streamlinehq.com
  </desc>
  <path d="M8 14.666666666666666C4.318099999999999 14.666666666666666 1.3333333333333333 11.681866666666666 1.3333333333333333 8 1.3333333333333333 4.318099999999999 4.318099999999999 1.3333333333333333 8 1.3333333333333333c3.6818666666666666 0 6.666666666666666 2.9847666666666663 6.666666666666666 6.666666666666666 0 3.6818666666666666 -2.9848 6.666666666666666 -6.666666666666666 6.666666666666666Zm0 -1.3333333333333333c2.9455333333333336 0 5.333333333333333 -2.3878 5.333333333333333 -5.333333333333333 0 -2.94552 -2.3878 -5.333333333333333 -5.333333333333333 -5.333333333333333 -2.94552 0 -5.333333333333333 2.387813333333333 -5.333333333333333 5.333333333333333 0 2.9455333333333336 2.387813333333333 5.333333333333333 5.333333333333333 5.333333333333333Zm0.6666666666666666 -6.333333333333333V10h0.6666666666666666v1.3333333333333333h-2.6666666666666665v-1.3333333333333333h0.6666666666666666v-1.6666666666666665h-0.6666666666666666v-1.3333333333333333h2Zm0.3333333333333333 -1.6666666666666665c0 0.5522866666666666 -0.4477333333333333 1 -1 1s-1 -0.4477133333333333 -1 -1 0.4477333333333333 -1 1 -1 1 0.4477133333333333 1 1Z" stroke-width="0.6667"></path>
</svg>